<svg width="100" height="100" viewBox="0 0 100 100" fill="none" xmlns="http://www.w3.org/2000/svg">
<path d="M100 50C100 22.3858 77.6142 0 50 0C22.3858 0 0 22.3858 0 50C0 77.6142 22.3858 100 50 100C77.6142 100 100 77.6142 100 50Z" fill="#262626"/>
<path d="M39.585 50C39.585 44.2473 44.2473 39.5825 50 39.5825C55.7527 39.5825 60.4175 44.2473 60.4175 50C60.4175 55.7527 55.7527 60.4175 50 60.4175C44.2473 60.4175 39.585 55.7527 39.585 50ZM33.9535 50C33.9535 58.8625 41.1375 66.0465 50 66.0465C58.8625 66.0465 66.0465 58.8625 66.0465 50C66.0465 41.1375 58.8625 33.9535 50 33.9535C41.1375 33.9535 33.9535 41.1375 33.9535 50ZM62.9317 33.3173C62.9315 34.059 63.151 34.784 63.5629 35.4008C63.9748 36.0177 64.5602 36.4985 65.2452 36.7827C65.9304 37.0669 66.6844 37.1415 67.4119 36.9971C68.1394 36.8525 68.8077 36.4956 69.3323 35.9715C69.8571 35.4473 70.2144 34.7792 70.3594 34.0519C70.5044 33.3244 70.4304 32.5704 70.1469 31.885C69.8633 31.1998 69.3829 30.614 68.7665 30.2017C68.1498 29.7894 67.425 29.569 66.6833 29.5687H66.6817C65.6875 29.5692 64.7342 29.9642 64.031 30.6671C63.3279 31.37 62.9325 32.3231 62.9317 33.3173ZM37.375 75.4367C34.3283 75.2979 32.6723 74.7904 31.5717 74.3617C30.1127 73.7937 29.0717 73.1173 27.9773 72.0242C26.8827 70.9313 26.2052 69.8912 25.6398 68.4323C25.2108 67.3323 24.7033 65.6758 24.5648 62.629C24.4133 59.335 24.3829 58.3454 24.3829 50.0002C24.3829 41.655 24.4158 40.6683 24.5648 37.3715C24.7035 34.3248 25.2148 32.6715 25.6398 31.5683C26.2077 30.1092 26.8842 29.0683 27.9773 27.9737C29.0702 26.8792 30.1102 26.2017 31.5717 25.6362C32.6717 25.2073 34.3283 24.6998 37.375 24.5613C40.669 24.4098 41.6585 24.3796 50 24.3796C58.3415 24.3796 59.3321 24.4123 62.6288 24.5613C65.6754 24.7 67.3288 25.2112 68.4321 25.6362C69.891 26.2017 70.9321 26.8808 72.0265 27.9737C73.121 29.0667 73.7961 30.1092 74.364 31.5683C74.7929 32.6683 75.3004 34.3248 75.439 37.3715C75.5904 40.6683 75.6208 41.655 75.6208 50.0002C75.6208 58.3454 75.5904 59.3323 75.439 62.629C75.3002 65.6758 74.7902 67.3317 74.364 68.4323C73.7961 69.8912 73.1196 70.9323 72.0265 72.0242C70.9335 73.1163 69.891 73.7937 68.4321 74.3617C67.3321 74.7908 65.6754 75.2983 62.6288 75.4367C59.3348 75.5883 58.3452 75.6185 50 75.6185C41.6548 75.6185 40.6679 75.5883 37.375 75.4367ZM37.1163 18.9393C33.7896 19.0908 31.5163 19.6183 29.531 20.3908C27.475 21.1885 25.7346 22.2588 23.9952 23.9952C22.256 25.7317 21.1885 27.475 20.3908 29.531C19.6183 31.5175 19.0908 33.7896 18.9393 37.1162C18.7853 40.4483 18.75 41.5135 18.75 50C18.75 58.4865 18.7853 59.5517 18.9393 62.8837C19.0908 66.2108 19.6183 68.4825 20.3908 70.469C21.1885 72.5237 22.2563 74.269 23.9952 76.0048C25.7342 77.7404 27.475 78.8092 29.531 79.6092C31.52 80.3817 33.7896 80.9092 37.1163 81.0608C40.45 81.2123 41.5135 81.25 50 81.25C58.4865 81.25 59.5517 81.2148 62.8838 81.0608C66.2108 80.9092 68.4825 80.3817 70.469 79.6092C72.5238 78.8092 74.2654 77.7412 76.0048 76.0048C77.744 74.2683 78.8092 72.5237 79.6092 70.469C80.3817 68.4825 80.9117 66.2104 81.0608 62.8837C81.2123 59.5492 81.2475 58.4865 81.2475 50C81.2475 41.5135 81.2123 40.4483 81.0608 37.1162C80.9092 33.7892 80.3817 31.5162 79.6092 29.531C78.8092 27.4762 77.7413 25.7346 76.0048 23.9952C74.2683 22.256 72.5238 21.1885 70.4715 20.3908C68.4825 19.6183 66.2104 19.0883 62.8863 18.9393C59.5542 18.7878 58.489 18.75 50.0025 18.75C41.516 18.75 40.45 18.7853 37.1163 18.9393Z" fill="#FFFFE8"/>
</svg>
