<svg width="100" height="100" viewBox="0 0 100 100" fill="none" xmlns="http://www.w3.org/2000/svg">
<path d="M100 50C100 22.3858 77.6142 0 50 0C22.3858 0 0 22.3858 0 50C0 77.6142 22.3858 100 50 100C77.6142 100 100 77.6142 100 50Z" fill="#0077B5"/>
<path d="M76.1344 68.9818C72.8353 68.9073 69.6147 68.9073 66.3156 68.9818C65.6086 68.9818 65.4515 68.8327 65.4515 68.1618C65.4515 62.6451 65.4515 57.0539 65.4515 51.5373C65.4515 50.2699 65.373 49.0026 64.9802 47.8098C63.802 43.9332 59.089 42.5168 55.7113 45.126C53.9046 46.4679 53.1977 48.3316 53.1977 50.5681C53.1977 55.7866 53.1977 61.005 53.1977 66.2235C53.1977 66.8945 53.1191 67.5654 53.1977 68.3109C53.2762 68.9073 52.962 69.0564 52.4122 68.9818C49.0345 68.9818 45.7354 68.9818 42.3578 68.9818C41.7294 68.9818 41.5723 68.8327 41.5723 68.2363C41.6508 63.5397 41.6508 58.8431 41.6508 54.0719C41.6508 48.2571 41.6508 42.4422 41.5723 36.7019C41.5723 36.031 41.7294 35.8819 42.3578 35.8819C45.7354 35.8819 49.0345 35.8819 52.4122 35.8819C53.0406 35.8819 53.1977 36.031 53.1977 36.6274C53.1977 37.8202 53.1977 39.013 53.1977 40.4294C53.4333 40.2057 53.5119 40.1312 53.5904 40.0567C56.6539 35.8073 60.9742 34.6145 66.0799 35.36C71.9712 36.2546 75.7416 40.1312 76.6842 46.0952C76.9199 47.5116 76.9984 48.928 76.9984 50.3445C76.9984 56.3084 76.9984 62.1978 76.9984 68.1618C76.9984 68.7582 76.8413 68.9818 76.1344 68.9818Z" fill="#FFFFE8"/>
<path d="M35.291 52.4322C35.291 57.6507 35.291 62.8691 35.291 68.0876C35.291 68.7585 35.1339 68.9822 34.427 68.9822C31.1279 68.9076 27.8288 68.9822 24.5296 68.9822C23.9012 68.9822 23.7441 68.8331 23.7441 68.2367C23.7441 57.7252 23.7441 47.1393 23.7441 36.6278C23.7441 36.106 23.9012 35.8823 24.5296 35.8823C27.9073 35.8823 31.285 35.8823 34.6626 35.8823C35.3696 35.8823 35.4481 36.106 35.4481 36.7024C35.291 41.9208 35.291 47.1393 35.291 52.4322Z" fill="#FFFFE8"/>
<path d="M35.8412 27.2344C35.0557 30.2164 31.8351 31.931 28.1433 31.3346C24.2158 30.7382 22.0164 27.0853 23.4303 23.5068C24.3729 21.2703 26.6508 19.9284 29.5572 20.003C33.956 19.9284 36.8623 23.2832 35.8412 27.2344Z" fill="#FFFFE8"/>
</svg>
