<svg width="100" height="100" viewBox="0 0 100 100" fill="none" xmlns="http://www.w3.org/2000/svg">
<path d="M100 50C100 22.3858 77.6142 0 50 0C22.3858 0 0 22.3858 0 50C0 77.6142 22.3858 100 50 100C77.6142 100 100 77.6142 100 50Z" fill="#1DA1F2"/>
<path d="M74.5059 39.1929C74.5059 39.7397 74.5059 40.2866 74.5059 40.7554C74.5059 56.9272 62.1621 75.5991 39.6621 75.5991C32.709 75.5991 26.3027 73.5679 20.834 70.1304C21.7715 70.2085 22.7871 70.2866 23.7246 70.2866C29.4277 70.2866 34.7402 68.3335 38.959 65.0522C33.5684 64.9741 29.0371 61.3804 27.5527 56.5366C28.334 56.6929 29.0371 56.771 29.8965 56.771C30.9902 56.771 32.084 56.6147 33.0996 56.3022C27.4746 55.2085 23.2559 50.2866 23.2559 44.3491C23.2559 44.271 23.2559 44.271 23.2559 44.1929C24.8965 45.1304 26.7715 45.6772 28.8027 45.7554C25.5215 43.5679 23.334 39.8179 23.334 35.521C23.334 33.2554 23.959 31.146 24.9746 29.3491C30.9902 36.771 40.0527 41.6147 50.209 42.1616C49.9746 41.3022 49.8965 40.2866 49.8965 39.3491C49.8965 32.5522 55.3652 27.0835 62.1621 27.0835C65.6777 27.0835 68.8809 28.5679 71.0684 30.9116C73.8809 30.3647 76.459 29.3491 78.8809 27.9429C77.9434 30.8335 75.9902 33.1772 73.4902 34.7397C75.9902 34.4272 78.334 33.8022 80.5215 32.7866C78.959 35.2866 76.9277 37.4741 74.5059 39.1929Z" fill="#FFFFE8"/>
</svg>
